<?xml version="1.0" standalone="no"?>
<!DOCTYPE svg PUBLIC "-//W3C//DTD SVG 20010904//EN"
 "http://www.w3.org/TR/2001/REC-SVG-20010904/DTD/svg10.dtd">
<svg version="1.0" xmlns="http://www.w3.org/2000/svg"
 width="835.000000pt" height="835.000000pt" viewBox="0 0 835.000000 835.000000"
 preserveAspectRatio="xMidYMid meet">
<metadata>
Created by potrace 1.16, written by Peter Selinger 2001-2019
</metadata>
<g transform="translate(0.000000,835.000000) scale(0.100000,-0.100000)"
fill="#000000" stroke="none">
<path d="M0 4175 l0 -4175 4175 0 4175 0 0 2855 c0 2531 -2 2855 -15 2855 -11
0 -15 11 -15 40 l0 40 -40 0 -40 0 0 40 0 40 -40 0 -40 0 0 40 0 40 -40 0 -40
0 0 40 0 40 -40 0 -40 0 0 40 0 40 -40 0 -40 0 0 40 0 40 -40 0 -40 0 0 40 0
40 -40 0 -40 0 0 40 0 40 -40 0 -40 0 0 40 0 40 -40 0 -40 0 0 40 0 40 -40 0
-40 0 0 40 0 40 -40 0 -40 0 0 40 0 40 -40 0 -40 0 0 40 0 40 -40 0 -40 0 0
40 0 40 -40 0 -40 0 0 40 0 40 -40 0 -40 0 0 40 0 40 -40 0 -40 0 0 40 0 40
-40 0 -40 0 0 40 0 40 -40 0 -40 0 0 40 0 40 -40 0 -40 0 0 40 0 40 -40 0 -40
0 0 40 0 40 -40 0 -40 0 0 40 0 40 -40 0 -40 0 0 40 0 40 -40 0 -40 0 0 40 0
40 -40 0 -40 0 0 40 0 40 -40 0 -40 0 0 40 0 40 -40 0 -40 0 0 40 0 40 -40 0
-40 0 0 40 0 40 -40 0 -40 0 0 40 0 40 -40 0 -40 0 0 40 0 40 -40 0 -40 0 0
40 0 40 -40 0 -40 0 0 40 0 40 -40 0 -40 0 0 40 0 40 -2880 0 -2880 0 0 -4175z
m6388 3 l-3 -2793 -2212 -3 -2213 -2 0 2795 0 2795 2215 0 2215 0 -2 -2792z"/>
<path d="M2100 6516 l0 -315 233 -77 c215 -71 240 -77 332 -81 116 -5 156 9
190 67 39 68 20 248 -60 545 -13 50 -29 109 -35 133 l-11 42 -324 0 -325 0 0
-314z"/>
<path d="M2997 6748 c15 -46 45 -147 68 -226 52 -174 82 -228 148 -261 45 -22
52 -23 103 -12 100 23 114 45 170 261 32 127 73 221 105 244 29 20 91 21 129
1 39 -20 47 -55 60 -258 16 -260 35 -317 106 -317 83 0 167 66 504 398 l255
251 -837 1 -836 0 25 -82z"/>
<path d="M4655 6622 c-115 -114 -332 -327 -481 -472 -149 -146 -647 -634
-1107 -1085 l-837 -820 393 -5 c215 -3 398 -9 406 -14 12 -8 13 -134 7 -837
l-8 -829 1611 0 1611 0 0 276 c0 259 -1 276 -17 269 -64 -27 -247 -80 -349
-100 -349 -71 -650 -28 -1045 148 -341 152 -685 139 -1139 -44 -178 -72 -198
-77 -229 -52 -30 24 -33 83 -6 113 10 11 66 43 124 71 301 145 504 191 811
183 247 -6 349 -31 594 -145 253 -119 373 -145 618 -136 203 8 382 50 576 138
l62 28 0 126 0 126 -29 -15 c-43 -23 -247 -83 -341 -100 -352 -67 -640 -27
-1028 145 -343 152 -701 143 -1117 -25 -221 -90 -227 -92 -258 -71 -37 24 -41
82 -9 119 25 28 261 139 382 180 141 47 256 67 435 73 286 11 452 -23 710
-145 248 -116 398 -150 624 -139 183 9 362 53 558 136 l68 29 3 155 2 154
-114 -39 c-175 -59 -327 -88 -501 -95 -276 -10 -504 42 -825 190 -129 59 -284
87 -481 87 -178 0 -385 -45 -584 -127 -60 -25 -140 -56 -178 -69 l-67 -23 -25
22 c-40 34 -40 78 -2 115 37 35 221 126 348 170 193 68 416 96 641 81 229 -15
304 -36 563 -157 83 -38 188 -79 235 -91 277 -68 543 -44 863 81 l127 49 0
156 c0 144 -1 155 -17 148 -103 -42 -288 -93 -423 -116 -41 -8 -147 -13 -235
-13 -245 0 -422 41 -695 162 -159 70 -262 97 -424 112 -243 21 -446 -17 -768
-146 -88 -35 -168 -64 -178 -64 -34 0 -64 35 -64 75 0 52 32 77 191 149 275
125 431 160 713 160 286 0 397 -26 675 -158 191 -90 296 -117 491 -123 117 -4
175 -2 254 12 112 18 311 78 415 125 l65 29 0 126 0 126 -29 -15 c-43 -23
-247 -83 -341 -100 -349 -67 -639 -27 -1016 140 -160 71 -242 92 -407 106
-230 20 -459 -19 -702 -119 -202 -83 -245 -96 -272 -84 -27 12 -47 55 -39 86
9 37 59 72 191 133 272 125 415 157 710 157 304 0 385 -18 645 -141 85 -40
193 -84 240 -97 293 -85 619 -49 983 107 l37 16 0 815 0 815 -692 0 -693 0
-210 -208z"/>
<path d="M3299 6076 c-307 -85 -491 -386 -425 -697 13 -62 72 -199 85 -199 3
0 190 184 414 408 l408 408 -64 32 c-36 17 -91 38 -123 47 -70 18 -230 18
-295 1z"/>
<path d="M2100 5158 l0 -811 63 59 c281 265 602 585 619 618 35 68 13 118 -67
152 -34 14 -60 15 -180 9 -211 -12 -238 -8 -280 35 -19 20 -27 38 -27 65 0 60
45 96 201 161 147 61 198 90 230 130 39 49 21 131 -37 172 -15 11 -139 65
-275 120 l-247 101 0 -811z"/>
<path d="M2100 2810 l0 -1300 2073 2 2072 3 3 448 2 447 -1655 0 -1656 0 -24
25 -25 24 0 826 0 825 -395 0 -395 0 0 -1300z m3110 -525 c25 -13 29 -13 34 0
8 23 83 20 90 -2 13 -46 56 -202 56 -206 0 -3 -21 -10 -47 -16 -46 -12 -47
-12 -72 21 -40 51 -73 79 -116 99 -69 32 -157 21 -170 -21 -13 -40 25 -64 167
-105 201 -59 261 -110 259 -220 0 -65 -17 -101 -66 -144 -58 -51 -100 -64
-200 -65 -77 -1 -97 3 -142 25 l-52 25 -10 -23 c-8 -18 -19 -23 -49 -23 l-39
0 -22 114 c-29 156 -29 153 22 164 33 7 44 6 52 -6 73 -106 118 -143 194 -162
123 -29 214 62 113 114 -15 8 -76 28 -135 45 -60 17 -125 40 -145 50 -150 77
-150 255 0 332 74 38 209 40 278 4z m-2533 2 c27 -14 32 -15 37 -2 3 10 19 15
45 15 39 0 41 -1 51 -42 6 -24 20 -73 30 -111 21 -75 20 -77 -46 -91 -26 -6
-34 -3 -47 17 -28 43 -81 90 -122 108 -75 34 -175 17 -175 -30 0 -34 45 -59
170 -96 190 -56 247 -98 258 -190 11 -98 -27 -163 -122 -213 -44 -23 -63 -26
-141 -27 -78 0 -97 4 -143 26 l-53 27 -9 -24 c-8 -20 -17 -24 -49 -24 l-39 0
-22 123 c-12 67 -23 126 -24 131 0 5 21 15 47 21 l48 13 18 -37 c30 -57 101
-117 162 -135 65 -20 81 -20 124 -2 42 18 60 48 45 76 -15 28 -39 39 -176 80
-154 46 -205 76 -233 133 -55 113 3 224 139 268 42 14 191 5 227 -14z m1129 7
c33 -11 49 -13 57 -5 6 6 27 11 47 11 l36 0 32 -116 c18 -65 30 -120 27 -123
-12 -12 -90 -30 -93 -22 -2 5 -17 30 -34 56 -123 186 -347 107 -341 -120 2
-100 46 -180 117 -215 82 -39 166 -18 254 64 27 25 52 46 56 46 15 0 66 -42
66 -54 0 -28 -111 -127 -177 -159 -61 -28 -77 -31 -163 -31 -83 -1 -102 3
-151 27 -67 32 -142 109 -172 175 -18 38 -22 66 -22 142 0 84 3 102 28 152 34
70 110 140 180 167 65 25 187 28 253 5z m-528 -41 c-3 -45 -5 -48 -33 -51 -16
-2 -36 -11 -42 -20 -16 -20 -18 -403 -3 -433 8 -13 21 -19 46 -19 l35 0 -3
-47 -3 -48 -167 -3 -168 -2 0 50 c0 48 1 50 29 50 50 0 52 10 49 246 l-3 219
-37 3 -38 3 0 50 0 49 171 0 170 0 -3 -47z m1327 -230 c98 -247 113 -278 138
-287 24 -9 27 -15 27 -58 l0 -48 -160 0 -160 0 0 50 c0 46 2 50 24 50 34 0 40
15 26 66 l-13 45 -105 -3 -105 -3 -15 -44 c-16 -48 -9 -61 36 -61 20 0 22 -5
22 -50 l0 -50 -135 0 -135 0 0 50 c0 42 3 50 18 50 11 0 26 8 34 18 8 9 63
137 123 285 l108 267 81 0 81 0 110 -277z m1384 6 c58 -146 112 -274 120 -283
7 -9 22 -16 32 -16 16 0 19 -8 19 -50 l0 -50 -165 0 -165 0 0 50 c0 46 2 50
24 50 38 0 48 21 33 66 l-14 39 -105 3 -105 3 -13 -45 c-14 -51 -8 -66 26 -66
22 0 24 -4 24 -50 l0 -51 -132 3 -133 3 -3 45 c-3 44 -2 46 29 55 32 10 36 19
130 250 54 132 104 257 113 278 l15 38 81 -3 82 -3 107 -266z"/>
</g>
</svg>
